<svg width="203" height="118" viewBox="0 0 203 118" fill="none" xmlns="http://www.w3.org/2000/svg">
<path d="M2.15637 53.1675C-0.604044 55.1534 -0.604044 58.4012 2.15637 60.386C4.91678 62.3729 9.43111 62.3729 12.1979 60.386C14.9584 58.4012 14.9584 55.1534 12.1979 53.1675C9.43111 51.1838 4.91678 51.1838 2.15637 53.1675Z" fill="#C8C7C7"/>
<path d="M16.922 42.552C14.1587 44.5389 14.1587 47.7856 16.916 49.7715C19.6794 51.7541 24.1942 51.7541 26.9546 49.7715C29.7145 47.7856 29.7145 44.5389 26.9546 42.552C24.1942 40.566 19.6794 40.566 16.922 42.552Z" fill="#C8C7C7"/>
<path d="M31.6791 31.9353C28.9187 33.9201 28.9187 37.169 31.6791 39.1549C34.4395 41.1419 38.9572 41.1419 41.7174 39.1549C44.4777 37.169 44.4752 33.9201 41.7174 31.9353C38.9572 29.9516 34.4395 29.9483 31.6791 31.9353Z" fill="#C8C7C7"/>
<path d="M26.4211 62.8447C23.8836 61.0231 19.7451 61.0231 17.2076 62.8447L15.6161 63.9905C13.0786 65.8143 13.0786 68.7948 15.6161 70.6175L17.2076 71.763C19.7451 73.5866 23.8895 73.5866 26.424 71.763L28.0185 70.6175C30.5496 68.7948 30.5496 65.8143 28.0185 63.9905L26.4211 62.8447Z" fill="#9C9A9B"/>
<path d="M41.1808 52.2278C38.6526 50.4052 34.5015 50.4052 31.9705 52.2278L30.376 53.3769C27.8385 55.1996 27.8385 58.1779 30.376 60.0017L31.9705 61.1475C34.5015 62.9712 38.6502 62.9712 41.1808 61.1475L42.7782 60.0017C45.3097 58.1779 45.3097 55.1963 42.7782 53.3747L41.1808 52.2278Z" fill="#9C9A9B"/>
<path d="M55.9417 41.6141C53.4102 39.7914 49.2616 39.7914 46.7301 41.6141L45.136 42.7599C42.6046 44.5792 42.6046 47.5642 45.136 49.3857L46.7342 50.5326C49.2641 52.3553 53.4102 52.3553 55.9449 50.5326L57.5399 49.3857C60.0705 47.5675 60.0705 44.5837 57.5399 42.7599L55.9417 41.6141Z" fill="#9C9A9B"/>
<path d="M39.4033 71.9931C37.7784 70.8272 35.1264 70.8272 33.5063 71.9931L28.3326 75.7126C26.7125 76.8786 26.7125 78.7891 28.3326 79.9551L33.5063 83.6735C35.1264 84.84 37.7784 84.84 39.4033 83.6735L44.5756 79.9551C46.1969 78.7891 46.1969 76.8786 44.5756 75.7126L39.4033 71.9931Z" fill="#656263"/>
<path d="M54.1656 61.3759C52.5419 60.2093 49.8861 60.2093 48.2665 61.3759L43.0917 65.0957C41.4721 66.2623 41.4721 68.1716 43.0917 69.3381L48.2624 73.0582C49.8861 74.2254 52.5419 74.2254 54.1631 73.0582L59.3371 69.3381C60.9576 68.1704 60.9576 66.2623 59.3371 65.0957L54.1656 61.3759Z" fill="#656263"/>
<path d="M68.9241 50.7618C67.3045 49.5953 64.6512 49.592 63.0267 50.7585L57.8551 54.4773C56.233 55.645 56.233 57.5553 57.8551 58.7218L63.0267 62.4384C64.6512 63.6083 67.3045 63.6083 68.9241 62.4384L74.0973 58.7218C75.7202 57.5553 75.7202 55.646 74.0973 54.4773L68.9241 50.7618Z" fill="#656263"/>
<path d="M171.094 7.73657C168.726 9.43878 164.857 9.43878 162.494 7.73657C160.126 6.03327 160.126 3.24885 162.494 1.54994C164.857 -0.153364 168.726 -0.153364 171.094 1.54994C173.462 3.24885 173.462 6.03327 171.094 7.73657Z" fill="#E9E9E9"/>
<path d="M185.855 12.166C183.49 10.4649 179.617 10.4649 177.25 12.166C174.887 13.8671 174.887 16.6526 177.25 18.3527C179.617 20.0549 183.49 20.0549 185.855 18.3527C188.222 16.6526 188.222 13.8671 185.855 12.166Z" fill="#E9E9E9"/>
<path d="M200.617 22.7812C198.25 21.0812 194.383 21.0812 192.013 22.7823C189.649 24.4834 189.649 27.2679 192.013 28.9701C194.38 30.669 198.25 30.669 200.617 28.9679C202.985 27.2679 202.985 24.4834 200.617 22.7812Z" fill="#E9E9E9"/>
<path d="M144.833 29.3932C141.918 31.4919 137.142 31.4919 134.22 29.3932C131.307 27.2934 131.307 23.8594 134.22 21.7629C137.142 19.663 141.918 19.663 144.833 21.7629C147.753 23.8594 147.753 27.2934 144.833 29.3932Z" fill="#E9E9E9"/>
<path d="M159.596 32.3771C156.674 30.2806 151.9 30.2806 148.987 32.3771C146.064 34.478 146.064 37.9109 148.987 40.0085C151.9 42.1072 156.674 42.1072 159.596 40.0085C162.512 37.9109 162.512 34.478 159.596 32.3771Z" fill="#E9E9E9"/>
<path d="M174.355 42.9942C171.438 40.8954 166.664 40.8954 163.744 42.9964C160.827 45.0918 160.827 48.528 163.744 50.6245C166.664 52.7243 171.438 52.7243 174.355 50.6223C177.275 48.528 177.275 45.0918 174.355 42.9942Z" fill="#E9E9E9"/>
<path d="M130.426 32.1253C127.381 29.9368 122.401 29.9368 119.353 32.1253C116.312 34.3161 116.312 37.8979 119.353 40.0875C122.401 42.2771 127.381 42.2771 130.426 40.0875C133.467 37.8979 133.467 34.3161 130.426 32.1253Z" fill="#E9E9E9"/>
<path d="M145.189 42.7415C142.141 40.5497 137.158 40.5497 134.115 42.7415C131.072 44.9312 131.072 48.5141 134.115 50.7038C137.158 52.8912 142.141 52.8912 145.189 50.7038C148.233 48.5141 148.233 44.9312 145.189 42.7415Z" fill="#E9E9E9"/>
<path d="M159.949 53.3565C156.904 51.1657 151.924 51.1657 148.875 53.3565C145.834 55.5461 145.834 59.1279 148.875 61.3165C151.921 63.5072 156.901 63.5072 159.949 61.3165C162.991 59.1279 162.991 55.5461 159.949 53.3565Z" fill="#E9E9E9"/>
<path d="M159.041 18.5541C156.361 20.483 151.977 20.483 149.294 18.5541C146.613 16.6262 146.613 13.4705 149.294 11.5449C151.977 9.61591 156.361 9.61591 159.041 11.5449C161.726 13.4705 161.726 16.6262 159.041 18.5541Z" fill="#E9E9E9"/>
<path d="M173.805 22.1593C171.124 20.2314 166.737 20.2314 164.054 22.1593C161.374 24.0882 161.374 27.244 164.054 29.1729C166.737 31.0997 171.124 31.0997 173.805 29.1729C176.484 27.244 176.484 24.0882 173.805 22.1593Z" fill="#E9E9E9"/>
<path d="M188.565 32.777C185.883 30.8502 181.5 30.8502 178.815 32.7781C176.133 34.7048 176.133 37.8617 178.815 39.7906C181.497 41.7152 185.883 41.7152 188.565 39.7873C191.251 37.8617 191.251 34.7048 188.565 32.777Z" fill="#E9E9E9"/>
<path d="M116.602 50.0264C119.202 48.1599 119.202 45.1059 116.602 43.2394L114.972 42.0641C112.375 40.1987 108.132 40.1987 105.532 42.0641L103.902 43.2394C101.306 45.1059 101.306 48.162 103.902 50.0264L105.532 51.2016C108.129 53.0671 112.375 53.0671 114.972 51.2016L116.602 50.0264Z" fill="#DEDDDE"/>
<path d="M131.365 60.6429C133.963 58.7775 133.963 55.7225 131.365 53.856L129.728 52.6806C127.135 50.8141 122.889 50.8141 120.292 52.6806L118.662 53.8538C116.065 55.7214 116.065 58.7775 118.662 60.6429L120.296 61.8193C122.889 63.6847 127.135 63.6847 129.732 61.8193L131.365 60.6429Z" fill="#DEDDDE"/>
<path d="M146.126 71.2574C148.723 69.3911 148.723 66.3373 146.126 64.4696L144.494 63.2965C141.899 61.4311 137.652 61.4311 135.059 63.2965L133.422 64.4696C130.829 66.3373 130.829 69.3922 133.422 71.2583L135.059 72.4341C137.649 74.2962 141.895 74.2962 144.494 72.4341L146.126 71.2574Z" fill="#DEDDDE"/>
<path d="M103.736 59.2822C105.355 58.1167 105.355 56.2053 103.736 55.0409L98.565 51.321C96.938 50.1534 94.2856 50.1534 92.6652 51.321L87.4919 55.0409C85.8707 56.2053 85.8707 58.1167 87.4919 59.2822L92.6652 63.0021C94.2856 64.1686 96.938 64.1686 98.565 63.0021L103.736 59.2822Z" fill="#D3D2D2"/>
<path d="M118.498 69.8974C120.118 68.7319 120.118 66.8206 118.498 65.6551L113.325 61.9363C111.704 60.7686 109.049 60.7686 107.424 61.9363L102.252 65.6551C100.632 66.8206 100.632 68.7308 102.252 69.8974L107.428 73.6183C109.049 74.7821 111.704 74.7821 113.325 73.6183L118.498 69.8974Z" fill="#D3D2D2"/>
<path d="M133.258 80.514C134.879 79.3459 134.879 77.4389 133.258 76.2729L128.088 72.5526C126.468 71.3874 123.81 71.3874 122.188 72.5526L117.015 76.2729C115.394 77.4389 115.394 79.3459 117.015 80.5153L122.188 84.2338C123.81 85.402 126.461 85.402 128.088 84.2338L133.258 80.514Z" fill="#D3D2D2"/>
<path d="M80.8818 75.6376L69.8112 67.6733L80.8818 59.7144L91.954 67.6733L80.8818 75.6376Z" fill="#C8C7C7"/>
<path d="M95.6418 86.2518L84.5679 78.2908L95.6418 70.3281L106.715 78.2908L95.6418 86.2518Z" fill="#BDBCBC"/>
<path d="M110.409 96.8682L99.3346 88.9085L110.409 80.9448L121.471 88.9052L110.409 96.8682Z" fill="#1A468E"/>
<path d="M66.2429 86.1632L55.1722 78.2034L66.2429 70.2417L77.3094 78.2034L66.2429 86.1632Z" fill="#D3D2D2"/>
<path d="M80.9995 96.7826L69.9321 88.8204L80.9995 80.8579L92.0758 88.8204L80.9995 96.7826Z" fill="#1A468E"/>
<path d="M95.766 107.396L84.6921 99.4359L95.766 91.4736L106.835 99.4326L95.766 107.396Z" fill="#BDBCBC"/>
<path d="M51.6021 96.6919L40.5356 88.7305L51.6054 80.7686L62.6736 88.7305L51.6021 96.6919Z" fill="#DEDDDE"/>
<path d="M66.367 107.308L55.2939 99.3465L66.3637 91.3867L77.4368 99.3465L66.367 107.308Z" fill="#BDBCBC"/>
<path d="M81.1271 117.925L70.0573 109.962L81.1271 102.002L92.196 109.962L81.1271 117.925Z" fill="#1A468E"/>
</svg>
