<svg width="300" height="218" viewBox="0 0 300 218" fill="none" xmlns="http://www.w3.org/2000/svg">
<mask id="mask0_207_92" style="mask-type:luminance" maskUnits="userSpaceOnUse" x="1" y="0" width="299" height="181">
<path d="M299.805 0H1V180.221H299.805V0Z" fill="white"/>
</mask>
<g mask="url(#mask0_207_92)">
<path d="M47.1564 53.1675C44.396 55.1534 44.396 58.4012 47.1564 60.386C49.9168 62.3729 54.4311 62.3729 57.1979 60.386C59.9584 58.4012 59.9584 55.1534 57.1979 53.1675C54.4311 51.1838 49.9168 51.1838 47.1564 53.1675Z" fill="#C8C7C7"/>
<path d="M61.922 42.552C59.1587 44.5389 59.1587 47.7856 61.916 49.7715C64.6794 51.7541 69.1942 51.7541 71.9546 49.7715C74.7145 47.7856 74.7145 44.5389 71.9546 42.552C69.1942 40.566 64.6794 40.566 61.922 42.552Z" fill="#C8C7C7"/>
<path d="M76.6791 31.9353C73.9187 33.9201 73.9187 37.169 76.6791 39.1549C79.4395 41.1419 83.9572 41.1419 86.7174 39.1549C89.4777 37.169 89.4752 33.9201 86.7174 31.9353C83.9572 29.9516 79.4395 29.9483 76.6791 31.9353Z" fill="#C8C7C7"/>
<path d="M71.4211 62.8447C68.8836 61.0231 64.7451 61.0231 62.2076 62.8447L60.6161 63.9905C58.0786 65.8143 58.0786 68.7948 60.6161 70.6175L62.2076 71.763C64.7451 73.5866 68.8895 73.5866 71.424 71.763L73.0185 70.6175C75.5496 68.7948 75.5496 65.8143 73.0185 63.9905L71.4211 62.8447Z" fill="#9C9A9B"/>
<path d="M86.1808 52.2278C83.6526 50.4052 79.5015 50.4052 76.9705 52.2278L75.376 53.3769C72.8385 55.1996 72.8385 58.1779 75.376 60.0017L76.9705 61.1475C79.5015 62.9712 83.6502 62.9712 86.1808 61.1475L87.7782 60.0017C90.3097 58.1779 90.3097 55.1963 87.7782 53.3747L86.1808 52.2278Z" fill="#9C9A9B"/>
<path d="M100.942 41.6141C98.4102 39.7914 94.2616 39.7914 91.7301 41.6141L90.136 42.7599C87.6046 44.5792 87.6046 47.5642 90.136 49.3857L91.7342 50.5326C94.2641 52.3553 98.4102 52.3553 100.945 50.5326L102.54 49.3857C105.071 47.5675 105.071 44.5837 102.54 42.7599L100.942 41.6141Z" fill="#9C9A9B"/>
<path d="M84.4033 71.9931C82.7784 70.8272 80.1264 70.8272 78.5063 71.9931L73.3326 75.7126C71.7125 76.8786 71.7125 78.7891 73.3326 79.9551L78.5063 83.6735C80.1264 84.84 82.7784 84.84 84.4033 83.6735L89.5756 79.9551C91.1969 78.7891 91.1969 76.8786 89.5756 75.7126L84.4033 71.9931Z" fill="#656263"/>
<path d="M99.1656 61.3759C97.5418 60.2093 94.8861 60.2093 93.2665 61.3759L88.0917 65.0957C86.4721 66.2623 86.4721 68.1716 88.0917 69.3381L93.2624 73.0582C94.8861 74.2254 97.5419 74.2254 99.1631 73.0582L104.337 69.3381C105.958 68.1704 105.958 66.2623 104.337 65.0957L99.1656 61.3759Z" fill="#656263"/>
<path d="M113.924 50.7618C112.304 49.5953 109.651 49.592 108.027 50.7585L102.855 54.4773C101.233 55.645 101.233 57.5553 102.855 58.7218L108.027 62.4384C109.651 63.6083 112.304 63.6083 113.924 62.4384L119.097 58.7218C120.72 57.5553 120.72 55.646 119.097 54.4773L113.924 50.7618Z" fill="#656263"/>
<path d="M216.094 7.73657C213.726 9.43878 209.857 9.43878 207.494 7.73657C205.126 6.03327 205.126 3.24885 207.494 1.54994C209.857 -0.153364 213.726 -0.153364 216.094 1.54994C218.462 3.24885 218.462 6.03327 216.094 7.73657Z" fill="#E9E9E9"/>
<path d="M230.855 12.166C228.49 10.4649 224.617 10.4649 222.25 12.166C219.887 13.8671 219.887 16.6526 222.25 18.3527C224.617 20.0549 228.49 20.0549 230.855 18.3527C233.222 16.6526 233.222 13.8671 230.855 12.166Z" fill="#E9E9E9"/>
<path d="M245.617 22.7812C243.25 21.0812 239.383 21.0812 237.013 22.7823C234.649 24.4834 234.649 27.2679 237.013 28.9701C239.38 30.669 243.25 30.669 245.617 28.9679C247.985 27.2679 247.985 24.4834 245.617 22.7812Z" fill="#E9E9E9"/>
<path d="M189.833 29.3932C186.918 31.4919 182.142 31.4919 179.22 29.3932C176.307 27.2934 176.307 23.8594 179.22 21.7629C182.142 19.663 186.918 19.663 189.833 21.7629C192.753 23.8594 192.753 27.2934 189.833 29.3932Z" fill="#E9E9E9"/>
<path d="M204.596 32.3771C201.674 30.2806 196.9 30.2806 193.987 32.3771C191.064 34.478 191.064 37.9109 193.987 40.0085C196.9 42.1072 201.674 42.1072 204.596 40.0085C207.512 37.9109 207.512 34.478 204.596 32.3771Z" fill="#E9E9E9"/>
<path d="M219.355 42.9942C216.438 40.8954 211.664 40.8954 208.744 42.9964C205.827 45.0918 205.827 48.528 208.744 50.6245C211.664 52.7243 216.438 52.7243 219.355 50.6223C222.275 48.528 222.275 45.0918 219.355 42.9942Z" fill="#E9E9E9"/>
<path d="M175.426 32.1253C172.381 29.9368 167.401 29.9368 164.353 32.1253C161.312 34.3161 161.312 37.8979 164.353 40.0875C167.401 42.2771 172.381 42.2771 175.426 40.0875C178.467 37.8979 178.467 34.3161 175.426 32.1253Z" fill="#E9E9E9"/>
<path d="M190.189 42.7415C187.141 40.5497 182.158 40.5497 179.115 42.7415C176.072 44.9312 176.072 48.5141 179.115 50.7038C182.158 52.8912 187.141 52.8912 190.189 50.7038C193.233 48.5141 193.233 44.9312 190.189 42.7415Z" fill="#E9E9E9"/>
<path d="M204.949 53.3565C201.904 51.1657 196.924 51.1657 193.875 53.3565C190.834 55.5461 190.834 59.1279 193.875 61.3165C196.921 63.5072 201.901 63.5072 204.949 61.3165C207.991 59.1279 207.991 55.5461 204.949 53.3565Z" fill="#E9E9E9"/>
<path d="M204.041 18.5541C201.361 20.483 196.977 20.483 194.294 18.5541C191.613 16.6262 191.613 13.4705 194.294 11.5449C196.977 9.61591 201.361 9.61591 204.041 11.5449C206.726 13.4705 206.726 16.6262 204.041 18.5541Z" fill="#E9E9E9"/>
<path d="M218.805 22.1593C216.124 20.2314 211.737 20.2314 209.054 22.1593C206.374 24.0882 206.374 27.244 209.054 29.1729C211.737 31.0997 216.124 31.0997 218.805 29.1729C221.484 27.244 221.484 24.0882 218.805 22.1593Z" fill="#E9E9E9"/>
<path d="M233.565 32.777C230.883 30.8502 226.5 30.8502 223.815 32.7781C221.133 34.7048 221.133 37.8617 223.815 39.7906C226.497 41.7152 230.883 41.7152 233.565 39.7873C236.251 37.8617 236.251 34.7048 233.565 32.777Z" fill="#E9E9E9"/>
<path d="M161.602 50.0264C164.202 48.1599 164.202 45.1059 161.602 43.2394L159.972 42.0641C157.375 40.1987 153.132 40.1987 150.532 42.0641L148.902 43.2394C146.306 45.1059 146.306 48.162 148.902 50.0264L150.532 51.2016C153.129 53.0671 157.375 53.0671 159.972 51.2016L161.602 50.0264Z" fill="#DEDDDE"/>
<path d="M176.365 60.6429C178.963 58.7775 178.963 55.7225 176.365 53.856L174.728 52.6806C172.135 50.8141 167.889 50.8141 165.292 52.6806L163.662 53.8538C161.065 55.7214 161.065 58.7775 163.662 60.6429L165.296 61.8193C167.889 63.6847 172.135 63.6847 174.732 61.8193L176.365 60.6429Z" fill="#DEDDDE"/>
<path d="M191.126 71.2574C193.723 69.3911 193.723 66.3373 191.126 64.4696L189.494 63.2965C186.899 61.4311 182.652 61.4311 180.059 63.2965L178.422 64.4696C175.829 66.3373 175.829 69.3922 178.422 71.2583L180.059 72.4341C182.649 74.2962 186.895 74.2962 189.494 72.4341L191.126 71.2574Z" fill="#DEDDDE"/>
<path d="M148.736 59.2822C150.355 58.1167 150.355 56.2053 148.736 55.0409L143.565 51.321C141.938 50.1534 139.286 50.1534 137.665 51.321L132.492 55.0409C130.871 56.2053 130.871 58.1167 132.492 59.2822L137.665 63.0021C139.286 64.1686 141.938 64.1686 143.565 63.0021L148.736 59.2822Z" fill="#D3D2D2"/>
<path d="M163.498 69.8974C165.118 68.7319 165.118 66.8206 163.498 65.6551L158.325 61.9363C156.704 60.7686 154.049 60.7686 152.424 61.9363L147.252 65.6551C145.632 66.8206 145.632 68.7308 147.252 69.8974L152.428 73.6183C154.049 74.7821 156.704 74.7821 158.325 73.6183L163.498 69.8974Z" fill="#D3D2D2"/>
<path d="M178.258 80.514C179.879 79.3459 179.879 77.4389 178.258 76.2729L173.088 72.5526C171.468 71.3874 168.81 71.3874 167.188 72.5526L162.015 76.2729C160.394 77.4389 160.394 79.3459 162.015 80.5153L167.188 84.2338C168.81 85.402 171.461 85.402 173.088 84.2338L178.258 80.514Z" fill="#D3D2D2"/>
<path d="M125.882 75.6376L114.811 67.6733L125.882 59.7144L136.954 67.6733L125.882 75.6376Z" fill="#C8C7C7"/>
<path d="M140.642 86.2518L129.568 78.2908L140.642 70.3281L151.715 78.2908L140.642 86.2518Z" fill="#BDBCBC"/>
<path d="M155.409 96.8682L144.335 88.9085L155.409 80.9448L166.471 88.9052L155.409 96.8682Z" fill="#1A468E"/>
<path d="M111.243 86.1632L100.172 78.2034L111.243 70.2417L122.309 78.2034L111.243 86.1632Z" fill="#D3D2D2"/>
<path d="M125.999 96.7826L114.932 88.8204L125.999 80.8579L137.076 88.8204L125.999 96.7826Z" fill="#1A468E"/>
<path d="M140.766 107.396L129.692 99.4359L140.766 91.4736L151.835 99.4326L140.766 107.396Z" fill="#BDBCBC"/>
<path d="M96.6021 96.6919L85.5356 88.7305L96.6054 80.7686L107.674 88.7305L96.6021 96.6919Z" fill="#DEDDDE"/>
<path d="M111.367 107.308L100.294 99.3465L111.364 91.3867L122.437 99.3465L111.367 107.308Z" fill="#BDBCBC"/>
<path d="M126.127 117.925L115.057 109.962L126.127 102.002L137.196 109.962L126.127 117.925Z" fill="#1A468E"/>
<path d="M16.5101 144.514C15.7407 145.016 14.7976 145.318 13.6746 145.419C12.5516 145.523 11.4286 145.677 10.3085 145.883C9.77831 145.973 9.26099 146.102 8.75734 146.26C8.25542 146.422 7.81093 146.643 7.42731 146.925C7.04453 147.205 6.74365 147.572 6.52075 148.029C6.29787 148.485 6.18641 149.038 6.18641 149.688C6.18641 150.248 6.35058 150.72 6.67377 151.1C7.0021 151.487 7.39173 151.787 7.84951 152.009C8.30815 152.229 8.80964 152.386 9.35612 152.472C9.90266 152.561 10.3969 152.606 10.8392 152.606C11.3999 152.606 12.0085 152.534 12.6566 152.386C13.3052 152.239 13.9197 151.989 14.4933 151.633C15.0699 151.28 15.5511 150.828 15.9335 150.286C16.3171 149.738 16.5101 149.069 16.5101 148.272V144.514ZM21.5628 150.881C21.5628 151.502 21.6406 151.943 21.8049 152.209C21.9678 152.472 22.2824 152.606 22.7572 152.606C22.9039 152.606 23.0808 152.606 23.2879 152.606C23.4936 152.606 23.7295 152.577 23.9952 152.515V156.009C23.8181 156.069 23.5888 156.136 23.3102 156.211C23.0287 156.284 22.7414 156.35 22.4465 156.409C22.1521 156.467 21.8542 156.511 21.5628 156.541C21.2649 156.571 21.0148 156.585 20.8091 156.585C19.774 156.585 18.9168 156.381 18.2387 155.968C17.5579 155.556 17.1156 154.832 16.9099 153.8C15.9043 154.773 14.6699 155.481 13.2096 155.922C11.7488 156.365 10.339 156.585 8.98024 156.585C7.94467 156.585 6.95581 156.442 6.00983 156.165C5.06683 155.886 4.23185 155.472 3.50876 154.927C2.78523 154.38 2.20872 153.689 1.78009 152.85C1.3506 152.009 1.13843 151.029 1.13843 149.908C1.13843 148.492 1.39646 147.345 1.91382 146.461C2.43161 145.575 3.10885 144.883 3.95025 144.381C4.79251 143.88 5.7385 143.518 6.78565 143.298C7.83364 143.076 8.89109 142.908 9.95541 142.788C10.8683 142.611 11.7394 142.485 12.5679 142.415C13.393 142.338 14.1268 142.213 14.7582 142.036C15.3964 141.86 15.8983 141.588 16.2679 141.219C16.6378 140.851 16.8208 140.299 16.8208 139.561C16.8208 138.91 16.6643 138.382 16.3557 137.967C16.0449 137.555 15.6621 137.239 15.2039 137.017C14.7454 136.8 14.2352 136.65 13.6746 136.575C13.1143 136.502 12.5803 136.465 12.0802 136.465C10.6626 136.465 9.49677 136.759 8.58032 137.35C7.66306 137.94 7.14955 138.853 7.03212 140.092H1.9794C2.06856 138.618 2.42433 137.394 3.04327 136.422C3.66307 135.447 4.45132 134.665 5.41403 134.077C6.37287 133.486 7.45731 133.074 8.66819 132.838C9.88036 132.604 11.1212 132.486 12.3909 132.486C13.5139 132.486 14.6211 132.604 15.7119 132.838C16.8048 133.074 17.7873 133.457 18.6574 133.988C19.5288 134.52 20.2292 135.204 20.7633 136.044C21.2935 136.886 21.5628 137.91 21.5628 139.116V150.881Z" fill="#231F20"/>
<path d="M24.8396 133.106H28.648V126.251H33.6989V133.106H38.2643V136.863H33.6989V149.07C33.6989 149.6 33.7186 150.057 33.7646 150.441C33.8074 150.822 33.9124 151.147 34.0766 151.412C34.236 151.68 34.4783 151.876 34.8061 152.011C35.1297 152.143 35.5755 152.21 36.1348 152.21C36.4884 152.21 36.8422 152.201 37.1992 152.187C37.5527 152.173 37.9064 152.12 38.2643 152.034V155.924C37.7007 155.984 37.1541 156.04 36.6234 156.099C36.0932 156.159 35.5425 156.19 34.9831 156.19C33.6531 156.19 32.5828 156.063 31.7705 155.814C30.9591 155.564 30.3239 155.195 29.8683 154.706C29.4066 154.22 29.0988 153.609 28.9347 152.872C28.7723 152.136 28.6767 151.296 28.648 150.351V136.863H24.8396V133.106Z" fill="#231F20"/>
<path d="M42.0256 133.104H46.7659V137.528H46.8551C47.002 136.907 47.29 136.304 47.7199 135.713C48.1486 135.125 48.666 134.586 49.2682 134.1C49.8738 133.613 50.549 133.224 51.285 132.929C52.0214 132.634 52.7744 132.486 53.5439 132.486C54.1332 132.486 54.5395 132.501 54.7619 132.529C54.9852 132.558 55.2103 132.588 55.4504 132.618V137.484C55.0925 137.425 54.7324 137.372 54.3626 137.326C53.993 137.283 53.6329 137.26 53.2794 137.26C52.4208 137.26 51.6162 137.431 50.8627 137.769C50.1126 138.11 49.4517 138.611 48.8945 139.272C48.3317 139.936 47.8892 140.754 47.5623 141.727C47.2378 142.702 47.0779 143.821 47.0779 145.089V155.968H42.0256V133.104Z" fill="#231F20"/>
<path d="M70.9987 144.514C70.2293 145.016 69.2863 145.318 68.1628 145.419C67.0403 145.523 65.9173 145.677 64.7972 145.883C64.2636 145.973 63.7458 146.102 63.2448 146.26C62.7411 146.422 62.2997 146.643 61.916 146.925C61.5303 147.205 61.2281 147.572 61.0095 148.029C60.7865 148.485 60.6751 149.038 60.6751 149.688C60.6751 150.248 60.8359 150.72 61.1625 151.1C61.4874 151.487 61.8795 151.787 62.3348 152.009C62.7934 152.229 63.297 152.386 63.8449 152.472C64.388 152.561 64.8851 152.606 65.3279 152.606C65.8873 152.606 66.4938 152.534 67.1453 152.386C67.7921 152.239 68.405 151.989 68.982 151.633C69.5572 151.28 70.0395 150.828 70.4222 150.286C70.8054 149.738 70.9987 149.069 70.9987 148.272V144.514ZM76.0468 150.881C76.0468 151.502 76.1295 151.943 76.2918 152.209C76.4531 152.472 76.7711 152.606 77.246 152.606C77.3926 152.606 77.5661 152.606 77.7763 152.606C77.9821 152.606 78.2178 152.577 78.4835 152.515V156.009C78.3068 156.069 78.0776 156.136 77.7955 156.211C77.5169 156.284 77.2289 156.35 76.934 156.409C76.6361 156.467 76.3415 156.511 76.0468 156.541C75.7522 156.571 75.5001 156.585 75.2944 156.585C74.2593 156.585 73.4054 156.381 72.724 155.968C72.0468 155.556 71.6009 154.832 71.3952 153.8C70.393 154.773 69.1586 155.481 67.6983 155.922C66.2345 156.365 64.8231 156.585 63.4672 156.585C62.4333 156.585 61.4446 156.442 60.4982 156.165C59.5521 155.886 58.7171 155.472 57.994 154.927C57.2697 154.38 56.6974 153.689 56.2675 152.85C55.8389 152.009 55.6259 151.029 55.6259 149.908C55.6259 148.492 55.8853 147.345 56.4025 146.461C56.9156 145.575 57.5975 144.883 58.4385 144.381C59.2795 143.88 60.2259 143.518 61.2739 143.298C62.322 143.076 63.3797 142.908 64.4406 142.788C65.3567 142.611 66.228 142.485 67.0561 142.415C67.8813 142.338 68.6108 142.213 69.2465 142.036C69.8817 141.86 70.3824 141.588 70.7531 141.219C71.1231 140.851 71.3061 140.299 71.3061 139.561C71.3061 138.91 71.1517 138.382 70.841 137.967C70.5337 137.555 70.1465 137.239 69.6892 137.017C69.2336 136.8 68.7227 136.65 68.1628 136.575C67.5996 136.502 67.0689 136.465 66.5655 136.465C65.1509 136.465 63.9821 136.759 63.069 137.35C62.1518 137.94 61.634 138.853 61.5195 140.092H56.4677C56.556 138.618 56.9095 137.394 57.5319 136.422C58.1501 135.447 58.94 134.665 59.8994 134.077C60.8581 133.486 61.946 133.074 63.1565 132.838C64.3678 132.604 65.6065 132.486 66.8762 132.486C67.9992 132.486 69.1093 132.604 70.1994 132.838C71.2931 133.074 72.2717 133.457 73.1461 133.988C74.0171 134.52 74.7179 135.204 75.2516 136.044C75.7822 136.886 76.0468 137.91 76.0468 139.116V150.881Z" fill="#231F20"/>
<path d="M82.0298 149.997H88.1881V155.968H82.0298V149.997Z" fill="#231F20"/>
<path d="M106.882 140.754C106.672 139.34 106.106 138.269 105.173 137.546C104.243 136.824 103.071 136.465 101.653 136.465C101.005 136.465 100.311 136.575 99.5707 136.8C98.8325 137.017 98.1552 137.431 97.5322 138.035C96.9142 138.64 96.3965 139.479 95.9842 140.557C95.5678 141.631 95.3645 143.04 95.3645 144.779C95.3645 145.723 95.4723 146.665 95.6953 147.609C95.9151 148.552 96.2723 149.394 96.7595 150.131C97.2475 150.865 97.8729 151.464 98.6424 151.921C99.407 152.377 100.339 152.606 101.431 152.606C102.907 152.606 104.124 152.149 105.088 151.236C106.047 150.32 106.643 149.038 106.882 147.388H111.931C111.459 150.363 110.329 152.643 108.542 154.219C106.754 155.797 104.383 156.585 101.431 156.585C99.6292 156.585 98.0433 156.284 96.6673 155.679C95.2962 155.075 94.1375 154.249 93.1943 153.205C92.2487 152.156 91.5303 150.91 91.0431 149.465C90.5551 148.025 90.3131 146.461 90.3131 144.779C90.3131 143.069 90.5493 141.463 91.02 139.957C91.4916 138.453 92.2018 137.15 93.1482 136.044C94.0914 134.939 95.2666 134.069 96.6673 133.433C98.0721 132.801 99.718 132.486 101.611 132.486C102.939 132.486 104.201 132.653 105.396 132.996C106.593 133.333 107.654 133.842 108.585 134.52C109.517 135.198 110.276 136.054 110.87 137.083C111.459 138.116 111.812 139.34 111.931 140.754H106.882Z" fill="#7B7979"/>
<path d="M126.549 152.606C127.672 152.606 128.645 152.37 129.473 151.899C130.302 151.426 130.979 150.809 131.509 150.041C132.043 149.274 132.433 148.413 132.685 147.455C132.933 146.498 133.061 145.518 133.061 144.514C133.061 143.54 132.933 142.568 132.685 141.594C132.433 140.625 132.043 139.76 131.509 139.008C130.979 138.255 130.302 137.645 129.473 137.173C128.645 136.701 127.672 136.465 126.549 136.465C125.427 136.465 124.452 136.701 123.626 137.173C122.797 137.645 122.119 138.255 121.588 139.008C121.055 139.76 120.663 140.625 120.413 141.594C120.162 142.568 120.037 143.54 120.037 144.514C120.037 145.518 120.162 146.498 120.413 147.455C120.663 148.413 121.055 149.274 121.588 150.041C122.119 150.809 122.797 151.426 123.626 151.899C124.452 152.37 125.427 152.606 126.549 152.606ZM126.549 156.585C124.716 156.585 123.085 156.284 121.654 155.679C120.22 155.075 119.008 154.241 118.021 153.182C117.032 152.119 116.279 150.852 115.761 149.379C115.244 147.904 114.985 146.284 114.985 144.514C114.985 142.777 115.244 141.167 115.761 139.692C116.279 138.219 117.032 136.952 118.021 135.89C119.008 134.83 120.22 133.997 121.654 133.39C123.085 132.787 124.716 132.486 126.549 132.486C128.38 132.486 130.01 132.787 131.444 133.39C132.875 133.997 134.087 134.83 135.079 135.89C136.064 136.952 136.817 138.219 137.334 139.692C137.853 141.167 138.11 142.777 138.11 144.514C138.11 146.284 137.853 147.904 137.334 149.379C136.817 150.852 136.064 152.119 135.079 153.182C134.087 154.241 132.875 155.075 131.444 155.679C130.01 156.284 128.38 156.585 126.549 156.585Z" fill="#7B7979"/>
<path d="M142.452 133.104H147.235V136.465L147.324 136.552C148.094 135.288 149.095 134.292 150.336 133.567C151.577 132.845 152.951 132.486 154.459 132.486C156.97 132.486 158.947 133.136 160.391 134.431C161.838 135.728 162.562 137.675 162.562 140.269V155.968H157.514V141.594C157.453 139.797 157.071 138.492 156.364 137.681C155.653 136.87 154.547 136.465 153.042 136.465C152.182 136.465 151.416 136.62 150.736 136.93C150.054 137.239 149.481 137.667 149.007 138.215C148.535 138.757 148.165 139.401 147.9 140.135C147.635 140.874 147.501 141.654 147.501 142.481V155.968H142.452V133.104Z" fill="#7B7979"/>
<path d="M171.822 148.624C171.968 150.1 172.531 151.132 173.504 151.72C174.48 152.311 175.644 152.606 177.004 152.606C177.475 152.606 178.015 152.568 178.621 152.496C179.227 152.422 179.796 152.282 180.328 152.075C180.858 151.868 181.297 151.565 181.633 151.168C181.975 150.771 182.127 150.248 182.099 149.599C182.069 148.948 181.833 148.418 181.391 148.006C180.948 147.595 180.381 147.263 179.686 147.015C178.991 146.761 178.202 146.547 177.316 146.37C176.431 146.195 175.527 146.002 174.614 145.795C173.667 145.591 172.757 145.34 171.889 145.045C171.015 144.749 170.236 144.352 169.542 143.85C168.849 143.349 168.291 142.71 167.879 141.927C167.467 141.147 167.257 140.181 167.257 139.029C167.257 137.79 167.562 136.753 168.168 135.911C168.772 135.072 169.542 134.393 170.472 133.879C171.402 133.362 172.432 133.001 173.571 132.795C174.71 132.588 175.793 132.486 176.827 132.486C178.009 132.486 179.14 132.61 180.216 132.861C181.297 133.111 182.269 133.519 183.139 134.077C184.01 134.638 184.733 135.369 185.31 136.267C185.886 137.166 186.247 138.249 186.398 139.516H181.122C180.888 138.308 180.335 137.498 179.463 137.083C178.592 136.671 177.597 136.465 176.474 136.465C176.121 136.465 175.698 136.495 175.21 136.552C174.722 136.613 174.266 136.722 173.838 136.886C173.409 137.048 173.05 137.283 172.751 137.592C172.455 137.902 172.309 138.308 172.309 138.809C172.309 139.426 172.525 139.931 172.954 140.311C173.383 140.695 173.946 141.013 174.64 141.263C175.337 141.515 176.131 141.727 177.02 141.904C177.908 142.08 178.824 142.275 179.775 142.481C180.691 142.687 181.594 142.936 182.485 143.231C183.371 143.525 184.165 143.925 184.863 144.427C185.555 144.928 186.119 145.558 186.548 146.328C186.978 147.093 187.193 148.035 187.193 149.155C187.193 150.513 186.885 151.664 186.263 152.606C185.642 153.55 184.832 154.318 183.84 154.906C182.853 155.495 181.748 155.922 180.533 156.188C179.319 156.454 178.12 156.585 176.939 156.585C175.489 156.585 174.149 156.424 172.921 156.099C171.694 155.774 170.625 155.282 169.722 154.62C168.821 153.955 168.112 153.129 167.593 152.142C167.073 151.153 166.802 149.982 166.772 148.624H171.822Z" fill="#7B7979"/>
<path d="M211.249 155.968H206.288V152.782H206.2C205.577 153.934 204.655 154.855 203.429 155.544C202.201 156.238 200.958 156.585 199.684 156.585C196.675 156.585 194.495 155.84 193.151 154.352C191.807 152.865 191.135 150.616 191.135 147.609V133.104H196.187V147.121C196.187 149.128 196.57 150.543 197.34 151.366C198.106 152.193 199.182 152.606 200.571 152.606C201.636 152.606 202.523 152.444 203.23 152.12C203.941 151.794 204.513 151.36 204.959 150.817C205.4 150.27 205.718 149.614 205.911 148.848C206.101 148.08 206.2 147.254 206.2 146.37V133.104H211.249V155.968Z" fill="#7B7979"/>
<path d="M216.83 124.393H221.879V155.968H216.83V124.393Z" fill="#7B7979"/>
<path d="M225.114 133.106H228.923V126.251H233.973V133.106H238.536V136.863H233.973V149.07C233.973 149.6 233.997 150.057 234.039 150.441C234.082 150.822 234.187 151.147 234.348 151.412C234.511 151.68 234.753 151.876 235.08 152.011C235.405 152.143 235.846 152.21 236.41 152.21C236.764 152.21 237.118 152.201 237.472 152.187C237.828 152.173 238.181 152.12 238.536 152.034V155.924C237.975 155.984 237.429 156.04 236.897 156.099C236.364 156.159 235.818 156.19 235.257 156.19C233.928 156.19 232.858 156.063 232.047 155.814C231.234 155.564 230.598 155.195 230.141 154.706C229.685 154.22 229.374 153.609 229.211 152.872C229.046 152.136 228.951 151.296 228.923 150.351V136.863H225.114V133.106Z" fill="#7B7979"/>
<path d="M242.388 133.104H247.437V155.968H242.388V133.104ZM242.388 124.393H247.437V129.17H242.388V124.393Z" fill="#7B7979"/>
<path d="M252.978 133.104H257.761V136.465L257.85 136.552C258.616 135.288 259.621 134.292 260.862 133.567C262.103 132.845 263.478 132.486 264.984 132.486C267.491 132.486 269.472 133.136 270.919 134.431C272.363 135.728 273.088 137.675 273.088 140.269V155.968H268.038V141.594C267.98 139.797 267.597 138.492 266.889 137.681C266.179 136.87 265.069 136.465 263.565 136.465C262.708 136.465 261.939 136.62 261.262 136.93C260.579 137.239 260.003 137.667 259.532 138.215C259.061 138.757 258.691 139.401 258.426 140.135C258.16 140.874 258.026 141.654 258.026 142.481V155.968H252.978V133.104Z" fill="#7B7979"/>
<path d="M288.506 151.989C289.629 151.989 290.578 151.76 291.364 151.302C292.142 150.844 292.781 150.24 293.27 149.488C293.754 148.736 294.107 147.882 294.33 146.925C294.548 145.967 294.664 145.001 294.664 144.027C294.664 143.055 294.543 142.11 294.307 141.196C294.071 140.283 293.711 139.472 293.223 138.766C292.736 138.057 292.101 137.498 291.317 137.083C290.535 136.671 289.596 136.465 288.506 136.465C287.382 136.465 286.436 136.701 285.67 137.173C284.903 137.645 284.281 138.255 283.806 139.008C283.335 139.76 282.999 140.616 282.792 141.572C282.582 142.529 282.48 143.483 282.48 144.427C282.48 145.367 282.596 146.288 282.835 147.19C283.071 148.087 283.434 148.892 283.921 149.599C284.405 150.307 285.025 150.881 285.781 151.323C286.534 151.765 287.441 151.989 288.506 151.989ZM299.713 154.773C299.713 158.222 298.744 160.794 296.812 162.49C294.877 164.185 292.094 165.031 288.46 165.031C287.311 165.031 286.148 164.915 284.982 164.679C283.816 164.443 282.753 164.046 281.792 163.484C280.834 162.923 280.028 162.186 279.379 161.272C278.729 160.359 278.346 159.239 278.227 157.91H283.276C283.424 158.619 283.675 159.194 284.03 159.638C284.386 160.082 284.806 160.427 285.293 160.675C285.781 160.929 286.319 161.087 286.911 161.164C287.5 161.234 288.119 161.272 288.77 161.272C290.807 161.272 292.3 160.77 293.246 159.77C294.189 158.767 294.664 157.322 294.664 155.436V151.943H294.573C293.865 153.209 292.896 154.197 291.671 154.906C290.447 155.611 289.123 155.968 287.706 155.968C285.876 155.968 284.317 155.653 283.033 155.016C281.746 154.38 280.688 153.511 279.845 152.407C279.003 151.302 278.388 150.028 278.005 148.582C277.623 147.137 277.429 145.591 277.429 143.937C277.429 142.406 277.664 140.947 278.138 139.561C278.611 138.177 279.292 136.958 280.176 135.911C281.063 134.867 282.147 134.034 283.434 133.413C284.718 132.795 286.171 132.486 287.795 132.486C289.242 132.486 290.571 132.787 291.782 133.39C292.994 133.997 293.925 134.947 294.573 136.245H294.664V133.104H299.713V154.773Z" fill="#7B7979"/>
</g>
<path d="M8.98474 179.799C8.98474 179.595 8.95284 179.416 8.88904 179.26C8.82922 179.101 8.72156 178.957 8.56604 178.83C8.41451 178.702 8.20317 178.581 7.93201 178.465C7.66484 178.349 7.32589 178.232 6.91516 178.112C6.4845 177.984 6.0957 177.843 5.74878 177.687C5.40186 177.528 5.10478 177.346 4.85754 177.143C4.61031 176.94 4.4209 176.706 4.28931 176.443C4.15771 176.18 4.09192 175.879 4.09192 175.54C4.09192 175.201 4.1617 174.888 4.30127 174.601C4.44084 174.314 4.64022 174.065 4.89941 173.853C5.1626 173.638 5.47563 173.47 5.8385 173.351C6.20138 173.231 6.60612 173.171 7.05273 173.171C7.70671 173.171 8.26099 173.297 8.71558 173.548C9.17415 173.795 9.52307 174.12 9.76233 174.523C10.0016 174.922 10.1212 175.349 10.1212 175.803H8.97278C8.97278 175.476 8.90299 175.187 8.76343 174.936C8.62386 174.681 8.41252 174.481 8.12939 174.338C7.84627 174.19 7.48739 174.116 7.05273 174.116C6.64201 174.116 6.30306 174.178 6.03589 174.302C5.76872 174.425 5.56934 174.593 5.43774 174.804C5.31014 175.016 5.24634 175.257 5.24634 175.528C5.24634 175.712 5.28422 175.879 5.35999 176.031C5.43974 176.178 5.56136 176.316 5.72485 176.443C5.89233 176.571 6.10368 176.688 6.35889 176.796C6.61808 176.904 6.92712 177.007 7.28601 177.107C7.78048 177.247 8.20715 177.402 8.56604 177.574C8.92493 177.745 9.22001 177.939 9.45129 178.154C9.68656 178.365 9.86003 178.607 9.97168 178.878C10.0873 179.145 10.1451 179.448 10.1451 179.787C10.1451 180.142 10.0734 180.463 9.92981 180.75C9.78625 181.037 9.58089 181.282 9.31372 181.486C9.04655 181.689 8.72555 181.846 8.35071 181.958C7.97986 182.066 7.56514 182.12 7.10657 182.12C6.70382 182.12 6.30705 182.064 5.91626 181.952C5.52946 181.84 5.17655 181.673 4.85754 181.45C4.54252 181.226 4.28931 180.951 4.0979 180.624C3.91048 180.293 3.81677 179.91 3.81677 179.476H4.96521C4.96521 179.775 5.02303 180.032 5.13867 180.247C5.25431 180.459 5.41182 180.634 5.61121 180.774C5.81458 180.913 6.04386 181.017 6.29907 181.085C6.55827 181.149 6.82743 181.181 7.10657 181.181C7.50932 181.181 7.85026 181.125 8.12939 181.013C8.40853 180.901 8.61987 180.742 8.76343 180.535C8.91097 180.327 8.98474 180.082 8.98474 179.799ZM20.7718 177.37V177.921C20.7718 178.575 20.69 179.161 20.5265 179.679C20.363 180.198 20.1278 180.638 19.8207 181.001C19.5137 181.364 19.1448 181.641 18.7142 181.833C18.2875 182.024 17.809 182.12 17.2786 182.12C16.7642 182.12 16.2917 182.024 15.861 181.833C15.4343 181.641 15.0635 181.364 14.7485 181.001C14.4374 180.638 14.1962 180.198 14.0247 179.679C13.8532 179.161 13.7675 178.575 13.7675 177.921V177.37C13.7675 176.716 13.8512 176.132 14.0187 175.618C14.1902 175.099 14.4314 174.659 14.7425 174.296C15.0535 173.929 15.4224 173.65 15.849 173.458C16.2797 173.267 16.7522 173.171 17.2667 173.171C17.797 173.171 18.2755 173.267 18.7022 173.458C19.1329 173.65 19.5017 173.929 19.8088 174.296C20.1198 174.659 20.3571 175.099 20.5206 175.618C20.688 176.132 20.7718 176.716 20.7718 177.37ZM19.6293 177.921V177.358C19.6293 176.84 19.5755 176.381 19.4678 175.983C19.3641 175.584 19.2106 175.249 19.0073 174.978C18.8039 174.707 18.5547 174.501 18.2596 174.362C17.9685 174.222 17.6375 174.152 17.2667 174.152C16.9078 174.152 16.5828 174.222 16.2917 174.362C16.0046 174.501 15.7573 174.707 15.55 174.978C15.3466 175.249 15.1891 175.584 15.0774 175.983C14.9658 176.381 14.91 176.84 14.91 177.358V177.921C14.91 178.443 14.9658 178.906 15.0774 179.308C15.1891 179.707 15.3486 180.044 15.556 180.319C15.7673 180.59 16.0165 180.796 16.3036 180.935C16.5947 181.075 16.9197 181.145 17.2786 181.145C17.6535 181.145 17.9864 181.075 18.2775 180.935C18.5686 180.796 18.8139 180.59 19.0132 180.319C19.2166 180.044 19.3701 179.707 19.4738 179.308C19.5775 178.906 19.6293 178.443 19.6293 177.921ZM26.1048 173.291V182H24.9504V173.291H26.1048ZM29.7535 177.209V178.154H25.8536V177.209H29.7535ZM30.3457 173.291V174.236H25.8536V173.291H30.3457ZM37.5091 173.291V182H36.3726V173.291H37.5091ZM40.3084 173.291V174.236H33.5792V173.291H40.3084ZM46.437 179.368L48.1656 173.291H49.003L48.5185 175.654L46.6583 182H45.8269L46.437 179.368ZM44.6485 173.291L46.0242 179.249L46.437 182H45.6115L43.5001 173.291H44.6485ZM51.2401 179.243L52.5859 173.291H53.7403L51.6348 182H50.8094L51.2401 179.243ZM49.1286 173.291L50.8094 179.368L51.4195 182H50.5881L48.7937 175.654L48.3032 173.291H49.1286ZM60.4312 174.063L57.5481 182H56.3698L59.6895 173.291H60.4491L60.4312 174.063ZM62.8477 182L59.9586 174.063L59.9407 173.291H60.7003L64.032 182H62.8477ZM62.6981 178.776V179.721H57.8053V178.776H62.6981ZM67.6484 173.291H70.5314C71.1854 173.291 71.7377 173.391 72.1883 173.59C72.6429 173.789 72.9878 174.085 73.2231 174.475C73.4623 174.862 73.582 175.339 73.582 175.905C73.582 176.304 73.5002 176.669 73.3367 177C73.1772 177.326 72.9459 177.606 72.6429 177.837C72.3438 178.064 71.9849 178.234 71.5662 178.345L71.2432 178.471H68.5336L68.5217 177.532H70.5673C70.982 177.532 71.327 177.46 71.6021 177.317C71.8772 177.169 72.0846 176.972 72.2242 176.724C72.3637 176.477 72.4335 176.204 72.4335 175.905C72.4335 175.57 72.3677 175.277 72.2361 175.026C72.1045 174.774 71.8972 174.581 71.6141 174.445C71.3349 174.306 70.974 174.236 70.5314 174.236H68.8028V182H67.6484V173.291ZM72.7386 182L70.6211 178.052L71.8234 178.046L73.9707 181.928V182H72.7386ZM83.1798 181.061V182H78.5681V181.061H83.1798ZM78.8014 173.291V182H77.6469V173.291H78.8014ZM82.5697 177.035V177.974H78.5681V177.035H82.5697ZM83.12 173.291V174.236H78.5681V173.291H83.12ZM98.0808 181.061V182H93.4691V181.061H98.0808ZM93.7023 173.291V182H92.5479V173.291H93.7023ZM97.4707 177.035V177.974H93.4691V177.035H97.4707ZM98.021 173.291V174.236H93.4691V173.291H98.021ZM101.96 173.291H104.843C105.497 173.291 106.05 173.391 106.5 173.59C106.955 173.789 107.3 174.085 107.535 174.475C107.774 174.862 107.894 175.339 107.894 175.905C107.894 176.304 107.812 176.669 107.649 177C107.489 177.326 107.258 177.606 106.955 177.837C106.656 178.064 106.297 178.234 105.878 178.345L105.555 178.471H102.846L102.834 177.532H104.879C105.294 177.532 105.639 177.46 105.914 177.317C106.189 177.169 106.397 176.972 106.536 176.724C106.676 176.477 106.745 176.204 106.745 175.905C106.745 175.57 106.68 175.277 106.548 175.026C106.417 174.774 106.209 174.581 105.926 174.445C105.647 174.306 105.286 174.236 104.843 174.236H103.115V182H101.96V173.291ZM107.051 182L104.933 178.052L106.135 178.046L108.283 181.928V182H107.051ZM113.113 173.291V182H111.959V173.291H113.113ZM116.762 177.209V178.154H112.862V177.209H116.762ZM117.354 173.291V174.236H112.862V173.291H117.354ZM127.885 177.37V177.921C127.885 178.575 127.803 179.161 127.64 179.679C127.476 180.198 127.241 180.638 126.934 181.001C126.627 181.364 126.258 181.641 125.827 181.833C125.401 182.024 124.922 182.12 124.392 182.12C123.878 182.12 123.405 182.024 122.974 181.833C122.548 181.641 122.177 181.364 121.862 181.001C121.551 180.638 121.31 180.198 121.138 179.679C120.967 179.161 120.881 178.575 120.881 177.921V177.37C120.881 176.716 120.965 176.132 121.132 175.618C121.304 175.099 121.545 174.659 121.856 174.296C122.167 173.929 122.536 173.65 122.962 173.458C123.393 173.267 123.866 173.171 124.38 173.171C124.91 173.171 125.389 173.267 125.816 173.458C126.246 173.65 126.615 173.929 126.922 174.296C127.233 174.659 127.47 175.099 127.634 175.618C127.801 176.132 127.885 176.716 127.885 177.37ZM126.743 177.921V177.358C126.743 176.84 126.689 176.381 126.581 175.983C126.477 175.584 126.324 175.249 126.121 174.978C125.917 174.707 125.668 174.501 125.373 174.362C125.082 174.222 124.751 174.152 124.38 174.152C124.021 174.152 123.696 174.222 123.405 174.362C123.118 174.501 122.871 174.707 122.663 174.978C122.46 175.249 122.302 175.584 122.191 175.983C122.079 176.381 122.023 176.84 122.023 177.358V177.921C122.023 178.443 122.079 178.906 122.191 179.308C122.302 179.707 122.462 180.044 122.669 180.319C122.881 180.59 123.13 180.796 123.417 180.935C123.708 181.075 124.033 181.145 124.392 181.145C124.767 181.145 125.1 181.075 125.391 180.935C125.682 180.796 125.927 180.59 126.127 180.319C126.33 180.044 126.483 179.707 126.587 179.308C126.691 178.906 126.743 178.443 126.743 177.921ZM137.345 181.061V182H132.991V181.061H137.345ZM133.218 173.291V182H132.064V173.291H133.218ZM147.159 177.663V180.852C147.051 181.011 146.879 181.191 146.644 181.39C146.409 181.585 146.084 181.757 145.669 181.904C145.258 182.048 144.728 182.12 144.078 182.12C143.548 182.12 143.059 182.028 142.613 181.844C142.17 181.657 141.785 181.386 141.458 181.031C141.135 180.672 140.884 180.237 140.705 179.727C140.529 179.213 140.441 178.63 140.441 177.98V177.305C140.441 176.655 140.517 176.074 140.669 175.564C140.824 175.054 141.051 174.621 141.351 174.266C141.65 173.907 142.016 173.636 142.451 173.453C142.886 173.265 143.384 173.171 143.946 173.171C144.612 173.171 145.169 173.287 145.615 173.518C146.066 173.746 146.417 174.061 146.668 174.463C146.923 174.866 147.087 175.325 147.159 175.839H146.004C145.952 175.524 145.849 175.237 145.693 174.978C145.542 174.719 145.324 174.511 145.041 174.356C144.758 174.196 144.393 174.116 143.946 174.116C143.544 174.116 143.195 174.19 142.9 174.338C142.605 174.485 142.361 174.697 142.17 174.972C141.979 175.247 141.835 175.58 141.739 175.971C141.648 176.361 141.602 176.802 141.602 177.293V177.98C141.602 178.483 141.66 178.932 141.775 179.326C141.895 179.721 142.064 180.058 142.284 180.337C142.503 180.612 142.764 180.822 143.067 180.965C143.374 181.109 143.713 181.181 144.084 181.181C144.495 181.181 144.828 181.147 145.083 181.079C145.338 181.007 145.538 180.923 145.681 180.828C145.825 180.728 145.934 180.634 146.01 180.547V178.597H143.994V177.663H147.159ZM151.523 173.291H154.406C155.06 173.291 155.612 173.391 156.062 173.59C156.517 173.789 156.862 174.085 157.097 174.475C157.337 174.862 157.456 175.339 157.456 175.905C157.456 176.304 157.374 176.669 157.211 177C157.051 177.326 156.82 177.606 156.517 177.837C156.218 178.064 155.859 178.234 155.44 178.345L155.117 178.471H152.408L152.396 177.532H154.442C154.856 177.532 155.201 177.46 155.476 177.317C155.751 177.169 155.959 176.972 156.098 176.724C156.238 176.477 156.308 176.204 156.308 175.905C156.308 175.57 156.242 175.277 156.11 175.026C155.979 174.774 155.771 174.581 155.488 174.445C155.209 174.306 154.848 174.236 154.406 174.236H152.677V182H151.523V173.291ZM156.613 182L154.495 178.052L155.698 178.046L157.845 181.928V182H156.613ZM167.054 181.061V182H162.442V181.061H167.054ZM162.676 173.291V182H161.521V173.291H162.676ZM166.444 177.035V177.974H162.442V177.035H166.444ZM166.994 173.291V174.236H162.442V173.291H166.994ZM172.172 173.291V182H171.017V173.291H172.172ZM181.979 179.231H183.127C183.068 179.781 182.91 180.273 182.655 180.708C182.4 181.143 182.039 181.488 181.572 181.743C181.106 181.994 180.523 182.12 179.826 182.12C179.315 182.12 178.851 182.024 178.432 181.833C178.017 181.641 177.66 181.37 177.361 181.019C177.062 180.664 176.831 180.239 176.667 179.745C176.508 179.247 176.428 178.692 176.428 178.082V177.215C176.428 176.605 176.508 176.052 176.667 175.558C176.831 175.06 177.064 174.633 177.367 174.278C177.674 173.923 178.043 173.65 178.474 173.458C178.904 173.267 179.389 173.171 179.927 173.171C180.585 173.171 181.142 173.295 181.596 173.542C182.051 173.789 182.404 174.132 182.655 174.571C182.91 175.006 183.068 175.51 183.127 176.084H181.979C181.923 175.678 181.819 175.329 181.668 175.038C181.516 174.743 181.301 174.515 181.022 174.356C180.743 174.196 180.378 174.116 179.927 174.116C179.54 174.116 179.2 174.19 178.904 174.338C178.613 174.485 178.368 174.695 178.169 174.966C177.973 175.237 177.826 175.562 177.726 175.941C177.626 176.32 177.577 176.74 177.577 177.203V178.082C177.577 178.509 177.62 178.91 177.708 179.284C177.8 179.659 177.937 179.988 178.121 180.271C178.304 180.554 178.538 180.778 178.821 180.941C179.104 181.101 179.439 181.181 179.826 181.181C180.316 181.181 180.707 181.103 180.998 180.947C181.289 180.792 181.508 180.568 181.656 180.277C181.807 179.986 181.915 179.637 181.979 179.231ZM192.839 177.035V177.974H188.125V177.035H192.839ZM188.305 173.291V182H187.15V173.291H188.305ZM193.844 173.291V182H192.695V173.291H193.844ZM209.367 181.061V182H204.755V181.061H209.367ZM204.988 173.291V182H203.834V173.291H204.988ZM208.757 177.035V177.974H204.755V177.035H208.757ZM209.307 173.291V174.236H204.755V173.291H209.307ZM219.946 173.291V182H218.785L214.401 175.283V182H213.246V173.291H214.401L218.803 180.026V173.291H219.946ZM227.48 173.291V182H226.343V173.291H227.48ZM230.279 173.291V174.236H223.55V173.291H230.279ZM236.408 179.368L238.136 173.291H238.974L238.489 175.654L236.629 182H235.798L236.408 179.368ZM234.619 173.291L235.995 179.249L236.408 182H235.582L233.471 173.291H234.619ZM241.211 179.243L242.557 173.291H243.711L241.606 182H240.78L241.211 179.243ZM239.099 173.291L240.78 179.368L241.39 182H240.559L238.764 175.654L238.274 173.291H239.099ZM248.679 173.291V182H247.525V173.291H248.679ZM258.486 179.231H259.635C259.575 179.781 259.417 180.273 259.162 180.708C258.907 181.143 258.546 181.488 258.08 181.743C257.613 181.994 257.031 182.12 256.333 182.12C255.823 182.12 255.358 182.024 254.939 181.833C254.525 181.641 254.168 181.37 253.869 181.019C253.57 180.664 253.338 180.239 253.175 179.745C253.015 179.247 252.936 178.692 252.936 178.082V177.215C252.936 176.605 253.015 176.052 253.175 175.558C253.338 175.06 253.572 174.633 253.875 174.278C254.182 173.923 254.551 173.65 254.981 173.458C255.412 173.267 255.896 173.171 256.435 173.171C257.093 173.171 257.649 173.295 258.104 173.542C258.558 173.789 258.911 174.132 259.162 174.571C259.417 175.006 259.575 175.51 259.635 176.084H258.486C258.431 175.678 258.327 175.329 258.175 175.038C258.024 174.743 257.808 174.515 257.529 174.356C257.25 174.196 256.885 174.116 256.435 174.116C256.048 174.116 255.707 174.19 255.412 174.338C255.121 174.485 254.876 174.695 254.676 174.966C254.481 175.237 254.333 175.562 254.234 175.941C254.134 176.32 254.084 176.74 254.084 177.203V178.082C254.084 178.509 254.128 178.91 254.216 179.284C254.307 179.659 254.445 179.988 254.628 180.271C254.812 180.554 255.045 180.778 255.328 180.941C255.611 181.101 255.946 181.181 256.333 181.181C256.824 181.181 257.214 181.103 257.505 180.947C257.797 180.792 258.016 180.568 258.163 180.277C258.315 179.986 258.423 179.637 258.486 179.231ZM264.812 173.291V182H263.658V173.291H264.812ZM270.07 173.291L266.451 177.352L264.418 179.464L264.226 178.232L265.757 176.545L268.682 173.291H270.07ZM268.957 182L265.733 177.753L266.421 176.838L270.333 182H268.957ZM279.333 181.061V182H274.721V181.061H279.333ZM274.954 173.291V182H273.8V173.291H274.954ZM278.723 177.035V177.974H274.721V177.035H278.723ZM279.273 173.291V174.236H274.721V173.291H279.273ZM288.494 181.061V182H284.14V181.061H288.494ZM284.367 173.291V182H283.212V173.291H284.367ZM298.965 173.291V182H297.805L293.42 175.283V182H292.266V173.291H293.42L297.823 180.026V173.291H298.965ZM80.2465 189.291V198H79.0921V189.291H80.2465ZM85.5042 189.291L81.8854 193.352L79.8517 195.464L79.6603 194.232L81.1916 192.545L84.1165 189.291H85.5042ZM84.3916 198L81.1676 193.753L81.8555 192.838L85.7674 198H84.3916ZM95.748 193.37V193.921C95.748 194.575 95.6663 195.161 95.5028 195.679C95.3393 196.198 95.104 196.638 94.797 197.001C94.4899 197.364 94.121 197.641 93.6904 197.833C93.2637 198.024 92.7852 198.12 92.2548 198.12C91.7404 198.12 91.2679 198.024 90.8372 197.833C90.4106 197.641 90.0397 197.364 89.7247 197.001C89.4137 196.638 89.1724 196.198 89.0009 195.679C88.8295 195.161 88.7437 194.575 88.7437 193.921V193.37C88.7437 192.716 88.8275 192.132 88.9949 191.618C89.1664 191.099 89.4077 190.659 89.7187 190.296C90.0297 189.929 90.3986 189.65 90.8253 189.458C91.2559 189.267 91.7285 189.171 92.2429 189.171C92.7732 189.171 93.2517 189.267 93.6784 189.458C94.1091 189.65 94.4779 189.929 94.785 190.296C95.096 190.659 95.3333 191.099 95.4968 191.618C95.6643 192.132 95.748 192.716 95.748 193.37ZM94.6055 193.921V193.358C94.6055 192.84 94.5517 192.381 94.444 191.983C94.3404 191.584 94.1868 191.249 93.9835 190.978C93.7801 190.707 93.5309 190.501 93.2358 190.362C92.9447 190.222 92.6137 190.152 92.2429 190.152C91.884 190.152 91.559 190.222 91.2679 190.362C90.9808 190.501 90.7336 190.707 90.5262 190.978C90.3228 191.249 90.1653 191.584 90.0537 191.983C89.942 192.381 89.8862 192.84 89.8862 193.358V193.921C89.8862 194.443 89.942 194.906 90.0537 195.308C90.1653 195.707 90.3248 196.044 90.5322 196.319C90.7435 196.59 90.9928 196.796 91.2799 196.935C91.571 197.075 91.896 197.145 92.2548 197.145C92.6297 197.145 92.9626 197.075 93.2537 196.935C93.5448 196.796 93.7901 196.59 93.9895 196.319C94.1928 196.044 94.3463 195.707 94.45 195.308C94.5537 194.906 94.6055 194.443 94.6055 193.921ZM100.292 189.291H101.41L104.263 196.391L107.11 189.291H108.235L104.694 198H103.821L100.292 189.291ZM99.9266 189.291H100.914L101.075 194.603V198H99.9266V189.291ZM107.607 189.291H108.594V198H107.445V194.603L107.607 189.291ZM116.284 194.585H113.957V193.646H116.284C116.734 193.646 117.099 193.574 117.378 193.43C117.657 193.287 117.861 193.087 117.988 192.832C118.12 192.577 118.186 192.286 118.186 191.959C118.186 191.66 118.12 191.379 117.988 191.115C117.861 190.852 117.657 190.641 117.378 190.481C117.099 190.318 116.734 190.236 116.284 190.236H114.226V198H113.071V189.291H116.284C116.941 189.291 117.498 189.405 117.952 189.632C118.407 189.859 118.752 190.174 118.987 190.577C119.222 190.976 119.34 191.432 119.34 191.947C119.34 192.505 119.222 192.982 118.987 193.376C118.752 193.771 118.407 194.072 117.952 194.28C117.498 194.483 116.941 194.585 116.284 194.585ZM128.531 197.061V198H124.177V197.061H128.531ZM124.404 189.291V198H123.249V189.291H124.404ZM137.836 197.061V198H133.224V197.061H137.836ZM133.457 189.291V198H132.303V189.291H133.457ZM137.226 193.035V193.974H133.224V193.035H137.226ZM137.776 189.291V190.236H133.224V189.291H137.776ZM142.463 189.291L144.557 192.629L146.65 189.291H147.996L145.244 193.604L148.062 198H146.704L144.557 194.597L142.409 198H141.051L143.869 193.604L141.117 189.291H142.463ZM153.084 189.291V198H151.929V189.291H153.084ZM160.672 189.291V198H159.535V189.291H160.672ZM163.471 189.291V190.236H156.742V189.291H163.471ZM169.959 190.063L167.076 198H165.897L169.217 189.291H169.977L169.959 190.063ZM172.375 198L169.486 190.063L169.468 189.291H170.228L173.559 198H172.375ZM172.226 194.776V195.721H167.333V194.776H172.226ZM167.817 187.939C167.817 187.76 167.873 187.608 167.985 187.485C168.096 187.361 168.258 187.299 168.469 187.299C168.685 187.299 168.848 187.361 168.96 187.485C169.071 187.608 169.127 187.76 169.127 187.939C169.127 188.111 169.071 188.258 168.96 188.382C168.848 188.501 168.685 188.561 168.469 188.561C168.258 188.561 168.096 188.501 167.985 188.382C167.873 188.258 167.817 188.111 167.817 187.939ZM170.395 187.951C170.395 187.772 170.449 187.62 170.557 187.497C170.668 187.373 170.832 187.311 171.047 187.311C171.259 187.311 171.42 187.373 171.532 187.497C171.647 187.62 171.705 187.772 171.705 187.951C171.705 188.123 171.647 188.27 171.532 188.394C171.42 188.513 171.259 188.573 171.047 188.573C170.832 188.573 170.668 188.513 170.557 188.394C170.449 188.27 170.395 188.123 170.395 187.951ZM179.616 189.291V198H178.48V189.291H179.616ZM182.416 189.291V190.236H175.686V189.291H182.416ZM194.511 193.927H192.304L192.292 193H194.296C194.627 193 194.916 192.944 195.163 192.832C195.41 192.72 195.602 192.561 195.737 192.354C195.877 192.142 195.947 191.891 195.947 191.6C195.947 191.281 195.885 191.022 195.761 190.822C195.642 190.619 195.456 190.471 195.205 190.38C194.958 190.284 194.643 190.236 194.26 190.236H192.561V198H191.407V189.291H194.26C194.707 189.291 195.105 189.337 195.456 189.429C195.807 189.516 196.104 189.656 196.348 189.847C196.595 190.035 196.782 190.274 196.91 190.565C197.037 190.856 197.101 191.205 197.101 191.612C197.101 191.971 197.009 192.296 196.826 192.587C196.643 192.874 196.387 193.109 196.06 193.293C195.737 193.476 195.359 193.594 194.924 193.646L194.511 193.927ZM194.457 198H191.849L192.501 197.061H194.457C194.824 197.061 195.135 196.997 195.391 196.87C195.65 196.742 195.847 196.562 195.983 196.331C196.118 196.096 196.186 195.819 196.186 195.5C196.186 195.177 196.128 194.898 196.013 194.662C195.897 194.427 195.715 194.246 195.468 194.118C195.221 193.99 194.902 193.927 194.511 193.927H192.866L192.878 193H195.127L195.373 193.334C195.791 193.37 196.146 193.49 196.437 193.693C196.728 193.893 196.95 194.148 197.101 194.459C197.257 194.77 197.334 195.113 197.334 195.488C197.334 196.03 197.215 196.489 196.976 196.864C196.74 197.234 196.407 197.517 195.977 197.713C195.546 197.904 195.04 198 194.457 198ZM207.022 197.061V198H202.41V197.061H207.022ZM202.644 189.291V198H201.489V189.291H202.644ZM206.412 193.035V193.974H202.41V193.035H206.412ZM206.962 189.291V190.236H202.41V189.291H206.962ZM216.59 193.035V193.974H211.877V193.035H216.59ZM212.056 189.291V198H210.902V189.291H212.056ZM217.595 189.291V198H216.446V189.291H217.595ZM227.629 197.061V198H223.018V197.061H227.629ZM223.251 189.291V198H222.096V189.291H223.251ZM227.019 193.035V193.974H223.018V193.035H227.019ZM227.569 189.291V190.236H223.018V189.291H227.569ZM231.509 189.291H234.392C235.046 189.291 235.598 189.391 236.049 189.59C236.503 189.789 236.848 190.085 237.084 190.475C237.323 190.862 237.442 191.339 237.442 191.905C237.442 192.304 237.361 192.669 237.197 193C237.038 193.326 236.806 193.606 236.503 193.837C236.204 194.064 235.845 194.234 235.427 194.345L235.104 194.471H232.394L232.382 193.532H234.428C234.843 193.532 235.187 193.46 235.463 193.317C235.738 193.169 235.945 192.972 236.085 192.724C236.224 192.477 236.294 192.204 236.294 191.905C236.294 191.57 236.228 191.277 236.097 191.026C235.965 190.774 235.758 190.581 235.475 190.445C235.195 190.306 234.835 190.236 234.392 190.236H232.663V198H231.509V189.291ZM236.599 198L234.482 194.052L235.684 194.046L237.831 197.928V198H236.599ZM241.507 189.291H244.391C245.044 189.291 245.597 189.391 246.047 189.59C246.502 189.789 246.847 190.085 247.082 190.475C247.321 190.862 247.441 191.339 247.441 191.905C247.441 192.304 247.359 192.669 247.196 193C247.036 193.326 246.805 193.606 246.502 193.837C246.203 194.064 245.844 194.234 245.425 194.345L245.102 194.471H242.393L242.381 193.532H244.426C244.841 193.532 245.186 193.46 245.461 193.317C245.736 193.169 245.944 192.972 246.083 192.724C246.223 192.477 246.293 192.204 246.293 191.905C246.293 191.57 246.227 191.277 246.095 191.026C245.964 190.774 245.756 190.581 245.473 190.445C245.194 190.306 244.833 190.236 244.391 190.236H242.662V198H241.507V189.291ZM246.598 198L244.48 194.052L245.682 194.046L247.83 197.928V198H246.598ZM256.148 195.799C256.148 195.595 256.116 195.416 256.052 195.26C255.992 195.101 255.884 194.957 255.729 194.83C255.577 194.702 255.366 194.581 255.095 194.465C254.828 194.349 254.489 194.232 254.078 194.112C253.647 193.984 253.259 193.843 252.912 193.687C252.565 193.528 252.268 193.346 252.02 193.143C251.773 192.94 251.584 192.706 251.452 192.443C251.321 192.18 251.255 191.879 251.255 191.54C251.255 191.201 251.325 190.888 251.464 190.601C251.604 190.314 251.803 190.065 252.062 189.853C252.326 189.638 252.639 189.47 253.001 189.351C253.364 189.231 253.769 189.171 254.216 189.171C254.87 189.171 255.424 189.297 255.878 189.548C256.337 189.795 256.686 190.12 256.925 190.523C257.164 190.922 257.284 191.349 257.284 191.803H256.136C256.136 191.476 256.066 191.187 255.926 190.936C255.787 190.681 255.575 190.481 255.292 190.338C255.009 190.19 254.65 190.116 254.216 190.116C253.805 190.116 253.466 190.178 253.199 190.302C252.932 190.425 252.732 190.593 252.601 190.804C252.473 191.016 252.409 191.257 252.409 191.528C252.409 191.712 252.447 191.879 252.523 192.031C252.603 192.178 252.724 192.316 252.888 192.443C253.055 192.571 253.267 192.688 253.522 192.796C253.781 192.904 254.09 193.007 254.449 193.107C254.943 193.247 255.37 193.402 255.729 193.574C256.088 193.745 256.383 193.939 256.614 194.154C256.849 194.365 257.023 194.607 257.135 194.878C257.25 195.145 257.308 195.448 257.308 195.787C257.308 196.142 257.236 196.463 257.093 196.75C256.949 197.037 256.744 197.282 256.477 197.486C256.209 197.689 255.888 197.846 255.514 197.958C255.143 198.066 254.728 198.12 254.269 198.12C253.867 198.12 253.47 198.064 253.079 197.952C252.692 197.84 252.339 197.673 252.02 197.45C251.705 197.226 251.452 196.951 251.261 196.624C251.073 196.293 250.98 195.91 250.98 195.476H252.128C252.128 195.775 252.186 196.032 252.302 196.247C252.417 196.459 252.575 196.634 252.774 196.774C252.977 196.913 253.207 197.017 253.462 197.085C253.721 197.149 253.99 197.181 254.269 197.181C254.672 197.181 255.013 197.125 255.292 197.013C255.571 196.901 255.783 196.742 255.926 196.535C256.074 196.327 256.148 196.082 256.148 195.799ZM266.487 195.231H267.636C267.576 195.781 267.418 196.273 267.163 196.708C266.908 197.143 266.547 197.488 266.08 197.743C265.614 197.994 265.032 198.12 264.334 198.12C263.823 198.12 263.359 198.024 262.94 197.833C262.525 197.641 262.169 197.37 261.87 197.019C261.57 196.664 261.339 196.239 261.176 195.745C261.016 195.247 260.936 194.692 260.936 194.082V193.215C260.936 192.605 261.016 192.052 261.176 191.558C261.339 191.06 261.572 190.633 261.875 190.278C262.183 189.923 262.551 189.65 262.982 189.458C263.413 189.267 263.897 189.171 264.436 189.171C265.094 189.171 265.65 189.295 266.104 189.542C266.559 189.789 266.912 190.132 267.163 190.571C267.418 191.006 267.576 191.51 267.636 192.084H266.487C266.431 191.678 266.328 191.329 266.176 191.038C266.025 190.743 265.809 190.515 265.53 190.356C265.251 190.196 264.886 190.116 264.436 190.116C264.049 190.116 263.708 190.19 263.413 190.338C263.122 190.485 262.876 190.695 262.677 190.966C262.482 191.237 262.334 191.562 262.234 191.941C262.135 192.32 262.085 192.74 262.085 193.203V194.082C262.085 194.509 262.129 194.91 262.216 195.284C262.308 195.659 262.446 195.988 262.629 196.271C262.813 196.554 263.046 196.778 263.329 196.941C263.612 197.101 263.947 197.181 264.334 197.181C264.824 197.181 265.215 197.103 265.506 196.947C265.797 196.792 266.017 196.568 266.164 196.277C266.316 195.986 266.423 195.637 266.487 195.231ZM277.347 193.035V193.974H272.634V193.035H277.347ZM272.813 189.291V198H271.659V189.291H272.813ZM278.352 189.291V198H277.204V189.291H278.352ZM288.386 197.061V198H283.775V197.061H288.386ZM284.008 189.291V198H282.854V189.291H284.008ZM287.776 193.035V193.974H283.775V193.035H287.776ZM288.327 189.291V190.236H283.775V189.291H288.327ZM298.965 189.291V198H297.805L293.42 191.283V198H292.266V189.291H293.42L297.823 196.026V189.291H298.965ZM149.184 211.368L150.912 205.291H151.75L151.265 207.654L149.405 214H148.574L149.184 211.368ZM147.395 205.291L148.771 211.249L149.184 214H148.358L146.247 205.291H147.395ZM153.987 211.243L155.333 205.291H156.487L154.382 214H153.556L153.987 211.243ZM151.875 205.291L153.556 211.368L154.166 214H153.335L151.541 207.654L151.05 205.291H151.875ZM163.178 206.063L160.295 214H159.117L162.436 205.291H163.196L163.178 206.063ZM165.595 214L162.705 206.063L162.688 205.291H163.447L166.779 214H165.595ZM165.445 210.776V211.721H160.552V210.776H165.445ZM177.094 205.291V214H175.934L171.55 207.283V214H170.395V205.291H171.55L175.952 212.026V205.291H177.094ZM183.947 214H182.128L182.14 213.061H183.947C184.569 213.061 185.087 212.931 185.502 212.672C185.917 212.409 186.228 212.042 186.435 211.572C186.646 211.097 186.752 210.543 186.752 209.909V209.376C186.752 208.878 186.692 208.435 186.573 208.048C186.453 207.658 186.278 207.329 186.046 207.062C185.815 206.79 185.532 206.585 185.197 206.445C184.866 206.306 184.485 206.236 184.054 206.236H182.093V205.291H184.054C184.625 205.291 185.145 205.387 185.616 205.578C186.086 205.766 186.491 206.039 186.83 206.398C187.173 206.752 187.436 207.183 187.619 207.69C187.803 208.192 187.895 208.758 187.895 209.388V209.909C187.895 210.539 187.803 211.107 187.619 211.613C187.436 212.116 187.171 212.545 186.824 212.899C186.481 213.254 186.066 213.527 185.58 213.719C185.097 213.906 184.553 214 183.947 214ZM182.745 205.291V214H181.59V205.291H182.745ZM197.612 213.061V214H193V213.061H197.612ZM193.234 205.291V214H192.079V205.291H193.234ZM197.002 209.035V209.974H193V209.035H197.002ZM197.552 205.291V206.236H193V205.291H197.552ZM206.773 213.061V214H202.419V213.061H206.773ZM202.646 205.291V214H201.492V205.291H202.646ZM222.47 209.663V212.852C222.362 213.011 222.191 213.191 221.955 213.39C221.72 213.585 221.395 213.757 220.98 213.904C220.57 214.048 220.039 214.12 219.389 214.12C218.859 214.12 218.37 214.028 217.924 213.844C217.481 213.657 217.096 213.386 216.769 213.031C216.446 212.672 216.195 212.237 216.016 211.727C215.84 211.213 215.753 210.63 215.753 209.98V209.305C215.753 208.655 215.828 208.074 215.98 207.564C216.135 207.054 216.363 206.621 216.662 206.266C216.961 205.907 217.328 205.636 217.762 205.453C218.197 205.265 218.695 205.171 219.258 205.171C219.924 205.171 220.48 205.287 220.926 205.518C221.377 205.746 221.728 206.061 221.979 206.463C222.234 206.866 222.398 207.325 222.47 207.839H221.315C221.263 207.524 221.16 207.237 221.004 206.978C220.853 206.719 220.635 206.511 220.352 206.356C220.069 206.196 219.704 206.116 219.258 206.116C218.855 206.116 218.506 206.19 218.211 206.338C217.916 206.485 217.673 206.697 217.481 206.972C217.29 207.247 217.146 207.58 217.051 207.971C216.959 208.361 216.913 208.802 216.913 209.293V209.98C216.913 210.483 216.971 210.932 217.086 211.326C217.206 211.721 217.375 212.058 217.595 212.337C217.814 212.612 218.075 212.822 218.378 212.965C218.685 213.109 219.024 213.181 219.395 213.181C219.806 213.181 220.139 213.147 220.394 213.079C220.649 213.007 220.849 212.923 220.992 212.828C221.136 212.728 221.245 212.634 221.321 212.547V210.597H219.306V209.663H222.47ZM232.367 213.061V214H227.755V213.061H232.367ZM227.988 205.291V214H226.834V205.291H227.988ZM231.757 209.035V209.974H227.755V209.035H231.757ZM232.307 205.291V206.236H227.755V205.291H232.307ZM240.888 211.799C240.888 211.595 240.856 211.416 240.792 211.26C240.732 211.101 240.625 210.957 240.469 210.83C240.318 210.702 240.106 210.581 239.835 210.465C239.568 210.349 239.229 210.232 238.818 210.112C238.388 209.984 237.999 209.843 237.652 209.687C237.305 209.528 237.008 209.346 236.761 209.143C236.513 208.94 236.324 208.706 236.192 208.443C236.061 208.18 235.995 207.879 235.995 207.54C235.995 207.201 236.065 206.888 236.204 206.601C236.344 206.314 236.543 206.065 236.802 205.853C237.066 205.638 237.379 205.47 237.742 205.351C238.104 205.231 238.509 205.171 238.956 205.171C239.61 205.171 240.164 205.297 240.619 205.548C241.077 205.795 241.426 206.12 241.665 206.523C241.905 206.922 242.024 207.349 242.024 207.803H240.876C240.876 207.476 240.806 207.187 240.666 206.936C240.527 206.681 240.316 206.481 240.032 206.338C239.749 206.19 239.39 206.116 238.956 206.116C238.545 206.116 238.206 206.178 237.939 206.302C237.672 206.425 237.472 206.593 237.341 206.804C237.213 207.016 237.149 207.257 237.149 207.528C237.149 207.712 237.187 207.879 237.263 208.031C237.343 208.178 237.464 208.316 237.628 208.443C237.795 208.571 238.007 208.688 238.262 208.796C238.521 208.904 238.83 209.007 239.189 209.107C239.684 209.247 240.11 209.402 240.469 209.574C240.828 209.745 241.123 209.939 241.354 210.154C241.59 210.365 241.763 210.607 241.875 210.878C241.99 211.145 242.048 211.448 242.048 211.787C242.048 212.142 241.976 212.463 241.833 212.75C241.689 213.037 241.484 213.282 241.217 213.486C240.95 213.689 240.629 213.846 240.254 213.958C239.883 214.066 239.468 214.12 239.01 214.12C238.607 214.12 238.21 214.064 237.819 213.952C237.432 213.84 237.08 213.673 236.761 213.45C236.446 213.226 236.192 212.951 236.001 212.624C235.814 212.293 235.72 211.91 235.72 211.476H236.868C236.868 211.775 236.926 212.032 237.042 212.247C237.157 212.459 237.315 212.634 237.514 212.774C237.718 212.913 237.947 213.017 238.202 213.085C238.461 213.149 238.73 213.181 239.01 213.181C239.412 213.181 239.753 213.125 240.032 213.013C240.312 212.901 240.523 212.742 240.666 212.535C240.814 212.327 240.888 212.082 240.888 211.799ZM249.188 205.291V214H248.051V205.291H249.188ZM251.987 205.291V206.236H245.258V205.291H251.987ZM258.474 206.063L255.591 214H254.413L257.733 205.291H258.492L258.474 206.063ZM260.891 214L258.002 206.063L257.984 205.291H258.744L262.075 214H260.891ZM260.741 210.776V211.721H255.849V210.776H260.741ZM270.973 213.061V214H266.619V213.061H270.973ZM266.846 205.291V214H265.692V205.291H266.846ZM276.312 205.291V214H275.176V205.291H276.312ZM279.112 205.291V206.236H272.382V205.291H279.112ZM288.386 213.061V214H283.775V213.061H288.386ZM284.008 205.291V214H282.854V205.291H284.008ZM287.776 209.035V209.974H283.775V209.035H287.776ZM288.327 205.291V206.236H283.775V205.291H288.327ZM298.965 205.291V214H297.805L293.42 207.283V214H292.266V205.291H293.42L297.823 212.026V205.291H298.965Z" fill="#231F20"/>
</svg>
